<svg width="22" height="21" viewBox="0 0 22 21" fill="none" xmlns="http://www.w3.org/2000/svg">
<mask id="mask0_702_1793" style="mask-type:luminance" maskUnits="userSpaceOnUse" x="0" y="0" width="22" height="21">
<path d="M21.5 0H0.5V21H21.5V0Z" fill="white"/>
</mask>
<g mask="url(#mask0_702_1793)">
<path d="M18.9023 7.27869C19.3076 8.27176 19.5312 9.35891 19.5312 10.5H20.8438C20.8438 9.18601 20.5859 7.93058 20.1175 6.78277L18.9023 7.27869ZM19.5312 10.5C19.5312 11.1061 19.4682 11.6968 19.3484 12.2661L20.6327 12.5364C20.7711 11.8787 20.8438 11.1975 20.8438 10.5H19.5312ZM19.3484 12.2661C18.6553 15.5599 16.0599 18.1553 12.7661 18.8484L13.0364 20.1327C16.8393 19.3325 19.8325 16.3393 20.6327 12.5364L19.3484 12.2661ZM12.7661 18.8484C12.1968 18.9682 11.6061 19.0312 11 19.0312V20.3438C11.6975 20.3438 12.3787 20.2711 13.0364 20.1327L12.7661 18.8484ZM11 19.0312C10.3938 19.0312 9.80317 18.9682 9.23386 18.8484L8.9636 20.1327C9.62118 20.2711 10.3025 20.3438 11 20.3438V19.0312ZM2.46875 10.5C2.46875 9.35804 2.69276 8.27005 3.09863 7.27636L1.88357 6.78009C1.41446 7.92861 1.15625 9.18496 1.15625 10.5H2.46875ZM9.23386 18.8484C5.94008 18.1553 3.34473 15.5599 2.65165 12.2661L1.36728 12.5364C2.1675 16.3393 5.16066 19.3325 8.9636 20.1327L9.23386 18.8484ZM2.65165 12.2661C2.53186 11.6968 2.46875 11.1061 2.46875 10.5H1.15625C1.15625 11.1975 1.2289 11.8787 1.36728 12.5364L2.65165 12.2661ZM3.09863 7.27636C4.15494 4.69014 6.44458 2.73857 9.23386 2.15165L8.9636 0.867276C5.74153 1.54527 3.10198 3.79698 1.88357 6.78009L3.09863 7.27636ZM9.23386 2.15165C9.80317 2.03186 10.3938 1.96875 11 1.96875V0.65625C10.3025 0.65625 9.62118 0.728901 8.9636 0.867276L9.23386 2.15165ZM11 1.96875C11.6061 1.96875 12.1968 2.03186 12.7661 2.15165L13.0364 0.867277C12.3787 0.728902 11.6975 0.65625 11 0.65625V1.96875ZM12.7661 2.15165C15.5562 2.73875 17.8464 4.69131 18.9023 7.27869L20.1175 6.78277C18.8996 3.79834 16.2594 1.54547 13.0364 0.867277L12.7661 2.15165ZM12.2761 1.70895C12.5297 2.50372 13.4688 5.56168 13.8538 8.37218L15.1542 8.19403C14.7529 5.26456 13.7836 2.11606 13.5265 1.30998L12.2761 1.70895ZM13.8538 8.37218C13.9571 9.12555 14.0188 9.8497 14.0188 10.5H15.3313C15.3313 9.77209 15.2626 8.98537 15.1542 8.19403L13.8538 8.37218ZM19.2444 6.43337C18.2355 6.73936 16.3404 7.27685 14.3849 7.63775L14.6231 8.9285C16.6478 8.55479 18.5958 8.00164 19.6254 7.68937L19.2444 6.43337ZM14.3849 7.63775C13.1988 7.85666 12.0132 8.00625 11 8.00625V9.31875C12.1265 9.31875 13.4001 9.15416 14.6231 8.9285L14.3849 7.63775ZM14.0188 10.5C14.0188 11.4633 13.8835 12.5832 13.6816 13.7121L14.9736 13.9431C15.1822 12.7767 15.3313 11.5721 15.3313 10.5H14.0188ZM13.6816 13.7121C13.2392 16.1868 12.496 18.6019 12.2761 19.291L13.5265 19.69C13.7519 18.9837 14.5158 16.5036 14.9736 13.9431L13.6816 13.7121ZM19.791 11.7761C19.1019 11.996 16.6868 12.7392 14.2121 13.1816L14.4431 14.4736C17.0036 14.0158 19.4837 13.2519 20.19 13.0265L19.791 11.7761ZM14.2121 13.1816C13.0832 13.3835 11.9633 13.5188 11 13.5188V14.8313C12.0721 14.8313 13.2767 14.6822 14.4431 14.4736L14.2121 13.1816ZM11 13.5188C10.0367 13.5188 8.91683 13.3835 7.78785 13.1816L7.55684 14.4736C8.72331 14.6822 9.92795 14.8313 11 14.8313V13.5188ZM7.78785 13.1816C5.31316 12.7392 2.89808 11.996 2.20895 11.7761L1.80998 13.0265C2.51632 13.2519 4.99639 14.0158 7.55684 14.4736L7.78785 13.1816ZM6.66875 10.5C6.66875 11.5721 6.81778 12.7767 7.02634 13.9431L8.31835 13.7121C8.11649 12.5832 7.98125 11.4633 7.98125 10.5H6.66875ZM7.02634 13.9431C7.48415 16.5036 8.24816 18.9837 8.47353 19.69L9.7239 19.291C9.50401 18.6019 8.76082 16.1868 8.31835 13.7121L7.02634 13.9431ZM8.47353 1.30998C8.21634 2.11606 7.24712 5.26456 6.84581 8.19403L8.14615 8.37218C8.53118 5.56168 9.47033 2.50372 9.7239 1.70895L8.47353 1.30998ZM6.84581 8.19403C6.7374 8.98537 6.66875 9.77209 6.66875 10.5H7.98125C7.98125 9.8497 8.04295 9.12555 8.14615 8.37218L6.84581 8.19403ZM11 8.00625C9.98684 8.00625 8.80121 7.85666 7.61508 7.63775L7.37688 8.9285C8.59985 9.15416 9.87352 9.31875 11 9.31875V8.00625ZM7.61508 7.63775C5.65888 7.27672 3.76306 6.73897 2.7545 6.43304L2.37352 7.68904C3.40281 8.00125 5.3515 8.55466 7.37688 8.9285L7.61508 7.63775ZM19.2075 6.44831C19.2179 6.44289 19.2307 6.43754 19.2444 6.43337L19.6254 7.68937C19.6914 7.66936 19.7534 7.64373 19.8123 7.61315L19.2075 6.44831ZM2.14872 7.58808C2.21782 7.63033 2.29277 7.66455 2.37352 7.68904L2.7545 6.43304C2.7836 6.44187 2.81042 6.45426 2.83348 6.46837L2.14872 7.58808Z" fill="#5EDFFF"/>
</g>
</svg>
